# xmcd
#
# Track frame offsets:
#	150
#	11314
#	23629
#	35786
#	48938
#	60041
#	69370
#	80330
#	93190
#	103172
#	113676
#	125141
#	135063
#	144997
#	154967
#	165753
#	174864
#	187135
#
# Disc length: 2646 seconds
#
# Revision: 1
# Processed by: cddbd v1.5.1PL0 Copyright (c) Steve Scherf et al.
# Submitted via: audiograbber 1.83.01
#
DISCID=d30a5412
DTITLE=Tommy Collins - The Capitol Collection
DYEAR=1963
DGENRE=Country
TTITLE0=You Better Not Do That
TTITLE1=High On A Hilltop
TTITLE2=What'cha Gonna Do Now
TTITLE3=I Guess I'm Crazy
TTITLE4=It Tickles
TTITLE5=I'll Never, Never Let You Go
TTITLE6=You Gotta Have A License
TTITLE7=How Do I Say Goodbye
TTITLE8=Untied
TTITLE9=You're For Me
TTITLE10=You Oughta See Pickles Now
TTITLE11=Little June
TTITLE12=Black Cat
TTITLE13=All Of The Monkeys Ain't In The Zoo
TTITLE14=Take Me Back To The Good Ol' Days
TTITLE15=Oh, What A Dream
TTITLE16=Don't Let Me Stand In His Footsteps
TTITLE17=If I Could Just Go Back
EXTD=
EXTT0=
EXTT1=
EXTT2=
EXTT3=
EXTT4=
EXTT5=
EXTT6=
EXTT7=
EXTT8=
EXTT9=
EXTT10=
EXTT11=
EXTT12=
EXTT13=
EXTT14=
EXTT15=
EXTT16=
EXTT17=
PLAYORDER=
